# xmcd
#
# Track frame offsets: 
#        150
#        11720
#        30739
#        46121
#        66412
#        91813
#        116055
#        132562
#        160803
#        175770
#
# Disc length: 3070 seconds
#
# Revision: 0
# Processed by: cddbd v1.5.2PL0 Copyright (c) Steve Scherf et al.
# Submitted via: ExactAudioCopy v0.99pb3
#
DISCID=810bfc0a
DTITLE=Wilder Mountain - New Year's Eve Service at Rocky Point
DYEAR=2010
DGENRE=Bluegrass
TTITLE0=01 I Have Found The Way
TTITLE1=02 Four Horses of the Apocalypse
TTITLE2=03 A Little At A Time
TTITLE3=04 Life's Railway To Heaven
TTITLE4=05 House of Gold
TTITLE5=06 Autumn
TTITLE6=07 Let Me Tell You About Jesus
TTITLE7=08 Rank Stranger
TTITLE8=09 Little Mountain Church House
TTITLE9=10 I'll Fly Away, Wayfaring Stranger
EXTD=
EXTT0=
EXTT1=
EXTT2=
EXTT3=
EXTT4=
EXTT5=
EXTT6=
EXTT7=
EXTT8=
EXTT9=
PLAYORDER=
